<svg width="210" height="150" viewBox="0 0 210 150" fill="none" xmlns="http://www.w3.org/2000/svg">
<path d="M33.0361 48.6689C33.0361 55.5049 27.9775 58.9229 17.8604 58.9229C14.1689 58.9229 10.9447 58.5241 8.1875 57.7266L9.34961 50.9932C12.1979 52.0186 15.0348 52.5312 17.8604 52.5312C20.5947 52.5312 22.486 52.3034 23.5342 51.8477C24.6051 51.3919 25.1406 50.6286 25.1406 49.5576C25.1406 47.8942 23.2266 46.3105 19.3984 44.8066C16.0488 43.485 13.6107 42.1862 12.084 40.9102C9.98763 39.1328 8.93945 36.9567 8.93945 34.3818C8.93945 31.3512 10.0674 28.9131 12.3232 27.0674C14.5791 25.2217 17.8604 24.2988 22.167 24.2988C26.2002 24.2988 29.3675 24.652 31.6689 25.3584L30.5068 32.126C27.932 31.1234 25.152 30.6221 22.167 30.6221C18.5212 30.6221 16.6982 31.5563 16.6982 33.4248C16.6982 34.3818 17.0856 35.1566 17.8604 35.749C18.6351 36.3187 20.2188 37.0479 22.6113 37.9365C25.9154 39.1442 28.3193 40.3861 29.8232 41.6621C31.9652 43.485 33.0361 45.8206 33.0361 48.6689ZM67.0107 57.9658L58.9443 58.2393C58.5798 57.2822 58.3975 56.4163 58.3975 55.6416H57.9531C55.4466 57.7835 52.0628 58.8545 47.8018 58.8545C44.9535 58.8545 42.5837 58.0684 40.6924 56.4961C38.8239 54.901 37.8896 52.7933 37.8896 50.1729C37.8896 46.7093 39.348 43.8724 42.2646 41.6621C45.2041 39.4518 50.3424 38.2783 57.6797 38.1416C57.7253 37.7314 57.748 37.3441 57.748 36.9795C57.748 34.5186 57.1556 32.9007 55.9707 32.126C54.7858 31.3285 52.6097 30.9297 49.4424 30.9297C46.0016 30.9297 42.6406 31.3854 39.3594 32.2969L40.1113 26.0078C43.2103 24.9368 47.5853 24.4014 53.2363 24.4014C57.3607 24.4014 60.5394 25.2673 62.7725 26.999C65.0283 28.7308 66.1562 31.7614 66.1562 36.0908C66.1562 37.0479 66.1107 38.791 66.0195 41.3203C65.9512 43.8496 65.917 45.5358 65.917 46.3789C65.917 51.0957 66.2816 54.958 67.0107 57.9658ZM57.8848 50.8564C57.748 47.7803 57.6797 45.1257 57.6797 42.8926C49.9095 42.8926 46.0244 44.8636 46.0244 48.8057C46.0244 51.5173 47.7334 52.873 51.1514 52.873C53.8402 52.873 56.0846 52.2008 57.8848 50.8564ZM83.2803 58H74.0859C74.4049 53.2832 74.5645 47.8714 74.5645 41.7646C74.5645 35.7035 74.1771 30.3942 73.4023 25.8369L83.2461 24.8457C82.9499 29.2663 82.8018 34.9059 82.8018 41.7646C82.8018 47.6208 82.9613 53.0326 83.2803 58ZM84.8525 15.207C84.8525 16.7565 84.3171 18.1123 83.2461 19.2744C82.1979 20.4365 80.7282 21.0176 78.8369 21.0176C77.2419 21.0176 75.9886 20.5163 75.0771 19.5137C74.1885 18.5111 73.7441 17.3034 73.7441 15.8906C73.7441 14.3411 74.2682 12.9967 75.3164 11.8574C76.3874 10.7181 77.8799 10.1484 79.7939 10.1484C81.4118 10.1484 82.6536 10.6497 83.5195 11.6523C84.4082 12.6322 84.8525 13.8171 84.8525 15.207ZM125.116 20.8125L124.364 27.1699C120.81 27.1699 118.588 27.6826 117.699 28.708V29.1523C119.044 30.8613 119.716 32.7754 119.716 34.8945C119.716 38.153 118.508 40.9329 116.093 43.2344C113.7 45.5358 110.123 46.6865 105.36 46.6865C103.036 46.6865 101.133 46.5042 99.6523 46.1396C98.4447 46.6865 97.8408 47.4043 97.8408 48.293C97.8408 49.6829 98.5586 50.6628 99.9941 51.2324C101.452 51.7793 104.825 52.0527 110.111 52.0527C119.249 52.0527 123.817 55.1631 123.817 61.3838C123.817 65.7588 121.915 69.2337 118.109 71.8086C114.304 74.3835 109.678 75.6709 104.232 75.6709C93.5684 75.6709 88.2363 72.3213 88.2363 65.6221C88.2363 63.5485 88.8288 61.7826 90.0137 60.3242C91.2214 58.8887 92.6113 58.0114 94.1836 57.6924V57.1797C92.2695 55.972 91.3125 54.1263 91.3125 51.6426C91.3125 49.1361 92.6227 47.0397 95.2432 45.3535V44.875C91.5518 43.0293 89.7061 40.1468 89.7061 36.2275C89.7061 32.8779 90.9707 30.0752 93.5 27.8193C96.0521 25.5635 99.9827 24.4355 105.292 24.4355C108.915 24.4355 111.854 25.1191 114.11 26.4863H114.589C115.25 22.1797 117.46 20.0264 121.22 20.0264C122.701 20.0264 124 20.2884 125.116 20.8125ZM115.375 63.9131C115.375 62.2269 114.726 61.0078 113.427 60.2559C112.151 59.5039 109.94 59.1279 106.796 59.1279C104.244 59.1279 101.669 59.014 99.0713 58.7861C97.0661 59.971 96.0635 61.737 96.0635 64.084C96.0635 68.459 98.9801 70.6465 104.813 70.6465C108.072 70.6465 110.647 70.0312 112.538 68.8008C114.429 67.5703 115.375 65.9411 115.375 63.9131ZM111.342 35.7832C111.342 33.7324 110.681 32.1715 109.359 31.1006C108.038 30.0296 106.522 29.4941 104.813 29.4941C103.104 29.4941 101.601 30.0182 100.302 31.0664C99.0257 32.0918 98.3877 33.6071 98.3877 35.6123C98.3877 37.6403 99.0485 39.1784 100.37 40.2266C101.692 41.2747 103.23 41.7988 104.984 41.7988C106.648 41.7988 108.118 41.2975 109.394 40.2949C110.692 39.2695 111.342 37.7656 111.342 35.7832ZM162.509 41.0127C162.509 46.7549 160.743 51.2438 157.211 54.4795C153.679 57.7152 149.521 59.333 144.735 59.333C140.178 59.333 136.27 57.8633 133.012 54.9238C129.753 51.9616 128.124 47.8031 128.124 42.4482C128.124 36.6833 129.901 32.1715 133.456 28.9131C137.011 25.6546 141.181 24.0254 145.966 24.0254C150.5 24.0254 154.385 25.5179 157.621 28.5029C160.88 31.4652 162.509 35.6351 162.509 41.0127ZM153.588 42.0381C153.588 38.734 152.813 35.9655 151.264 33.7324C149.714 31.4766 147.698 30.3486 145.214 30.3486C142.799 30.3486 140.827 31.3968 139.301 33.4932C137.797 35.5895 137.045 38.21 137.045 41.3545C137.045 44.6585 137.82 47.4385 139.369 49.6943C140.919 51.9274 142.935 53.0439 145.419 53.0439C147.834 53.0439 149.794 51.9958 151.298 49.8994C152.825 47.8031 153.588 45.1826 153.588 42.0381ZM199.56 58H190.468C190.969 52.235 191.22 46.4017 191.22 40.5C191.22 36.9225 190.684 34.4958 189.613 33.2197C188.565 31.9437 186.959 31.3057 184.794 31.3057C182.196 31.3057 179.735 32.1943 177.411 33.9717C177.525 42.8584 177.582 50.8678 177.582 58H168.388C168.798 50.8678 169.003 45.2624 169.003 41.1836C169.003 35.7376 168.445 30.5993 167.328 25.7686L176.078 24.8115L176.659 28.4346H177.206C180.328 25.7458 183.917 24.4014 187.973 24.4014C191.482 24.4014 194.285 25.2331 196.381 26.8965C198.5 28.5371 199.56 31.5791 199.56 36.0225C199.56 36.6833 199.525 37.5719 199.457 38.6885C199.411 39.7822 199.389 40.9102 199.389 42.0723C199.389 45.1484 199.446 50.4577 199.56 58Z" fill="#3D3832"/>
<path d="M54.4482 123H45.3906C45.8691 117.235 46.1084 111.63 46.1084 106.184C46.1084 102.105 45.5843 99.4388 44.5361 98.1855C43.488 96.9323 41.8132 96.3057 39.5117 96.3057C37.666 96.3057 35.7178 96.9779 33.667 98.3223C33.5758 101.171 33.5303 103.723 33.5303 105.979C33.5303 109.784 33.5986 115.458 33.7354 123H24.5752C25.0765 116.757 25.3271 110.684 25.3271 104.782C25.3271 101.729 24.8942 99.5527 24.0283 98.2539C23.1852 96.9551 21.4193 96.3057 18.7305 96.3057C16.2467 96.3057 14.1846 97.1374 12.5439 98.8008C12.6579 107.824 12.7148 115.891 12.7148 123H3.52051C3.93066 115.891 4.13574 110.285 4.13574 106.184C4.13574 100.852 3.57747 95.7132 2.46094 90.7686L11.2109 89.8115L11.792 93.4346H12.3389C15.3011 90.7458 18.6393 89.4014 22.3535 89.4014C27.002 89.4014 30.2718 90.7458 32.1631 93.4346H32.71C36.0824 90.7458 39.4206 89.4014 42.7246 89.4014C46.5983 89.4014 49.515 90.2445 51.4746 91.9307C53.457 93.5941 54.4482 96.6247 54.4482 101.022C54.4482 101.455 54.4255 102.287 54.3799 103.518C54.3343 104.725 54.3115 105.546 54.3115 105.979C54.3115 109.784 54.3571 115.458 54.4482 123ZM89.8584 122.966L81.792 123.239C81.4274 122.282 81.2451 121.416 81.2451 120.642H80.8008C78.2943 122.784 74.9105 123.854 70.6494 123.854C67.8011 123.854 65.4313 123.068 63.54 121.496C61.6715 119.901 60.7373 117.793 60.7373 115.173C60.7373 111.709 62.1956 108.872 65.1123 106.662C68.0518 104.452 73.1901 103.278 80.5273 103.142C80.5729 102.731 80.5957 102.344 80.5957 101.979C80.5957 99.5186 80.0033 97.9007 78.8184 97.126C77.6335 96.3285 75.4574 95.9297 72.29 95.9297C68.8493 95.9297 65.4883 96.3854 62.207 97.2969L62.959 91.0078C66.0579 89.9368 70.4329 89.4014 76.084 89.4014C80.2083 89.4014 83.387 90.2673 85.6201 91.999C87.876 93.7308 89.0039 96.7614 89.0039 101.091C89.0039 102.048 88.9583 103.791 88.8672 106.32C88.7988 108.85 88.7646 110.536 88.7646 111.379C88.7646 116.096 89.1292 119.958 89.8584 122.966ZM80.7324 115.856C80.5957 112.78 80.5273 110.126 80.5273 107.893C72.7572 107.893 68.8721 109.864 68.8721 113.806C68.8721 116.517 70.5811 117.873 73.999 117.873C76.6878 117.873 78.9323 117.201 80.7324 115.856ZM118.979 90.5293L116.997 98.5273C115.311 97.8438 113.602 97.502 111.87 97.502C108.521 97.502 106.31 99.0059 105.239 102.014C105.239 111.105 105.308 118.101 105.444 123H96.3525C96.7399 116.141 96.9336 110.536 96.9336 106.184C96.9336 100.76 96.3639 95.6221 95.2246 90.7686L103.94 89.8115C104.328 92.318 104.521 93.7878 104.521 94.2207H105.068C107.165 91.0078 109.956 89.4014 113.442 89.4014C115.083 89.4014 116.929 89.7773 118.979 90.5293ZM133.13 123H123.936C124.255 118.283 124.414 112.871 124.414 106.765C124.414 100.703 124.027 95.3942 123.252 90.8369L133.096 89.8457C132.799 94.2663 132.651 99.9059 132.651 106.765C132.651 112.621 132.811 118.033 133.13 123ZM134.702 80.207C134.702 81.7565 134.167 83.1123 133.096 84.2744C132.048 85.4365 130.578 86.0176 128.687 86.0176C127.091 86.0176 125.838 85.5163 124.927 84.5137C124.038 83.5111 123.594 82.3034 123.594 80.8906C123.594 79.3411 124.118 77.9967 125.166 76.8574C126.237 75.7181 127.729 75.1484 129.644 75.1484C131.261 75.1484 132.503 75.6497 133.369 76.6523C134.258 77.6322 134.702 78.8171 134.702 80.207ZM171.753 123H162.661C163.162 117.235 163.413 111.402 163.413 105.5C163.413 101.923 162.878 99.4958 161.807 98.2197C160.758 96.9437 159.152 96.3057 156.987 96.3057C154.39 96.3057 151.929 97.1943 149.604 98.9717C149.718 107.858 149.775 115.868 149.775 123H140.581C140.991 115.868 141.196 110.262 141.196 106.184C141.196 100.738 140.638 95.5993 139.521 90.7686L148.271 89.8115L148.853 93.4346H149.399C152.521 90.7458 156.11 89.4014 160.166 89.4014C163.675 89.4014 166.478 90.2331 168.574 91.8965C170.693 93.5371 171.753 96.5791 171.753 101.022C171.753 101.683 171.719 102.572 171.65 103.688C171.605 104.782 171.582 105.91 171.582 107.072C171.582 110.148 171.639 115.458 171.753 123ZM207.163 122.966L199.097 123.239C198.732 122.282 198.55 121.416 198.55 120.642H198.105C195.599 122.784 192.215 123.854 187.954 123.854C185.106 123.854 182.736 123.068 180.845 121.496C178.976 119.901 178.042 117.793 178.042 115.173C178.042 111.709 179.5 108.872 182.417 106.662C185.356 104.452 190.495 103.278 197.832 103.142C197.878 102.731 197.9 102.344 197.9 101.979C197.9 99.5186 197.308 97.9007 196.123 97.126C194.938 96.3285 192.762 95.9297 189.595 95.9297C186.154 95.9297 182.793 96.3854 179.512 97.2969L180.264 91.0078C183.363 89.9368 187.738 89.4014 193.389 89.4014C197.513 89.4014 200.692 90.2673 202.925 91.999C205.181 93.7308 206.309 96.7614 206.309 101.091C206.309 102.048 206.263 103.791 206.172 106.32C206.104 108.85 206.069 110.536 206.069 111.379C206.069 116.096 206.434 119.958 207.163 122.966ZM198.037 115.856C197.9 112.78 197.832 110.126 197.832 107.893C190.062 107.893 186.177 109.864 186.177 113.806C186.177 116.517 187.886 117.873 191.304 117.873C193.993 117.873 196.237 117.201 198.037 115.856Z" fill="#3D3832"/>
</svg>
