<svg width="349" height="723" viewBox="0 0 349 723" fill="none" xmlns="http://www.w3.org/2000/svg">
<path d="M328 428.5L329.5 431.4L331.1 432.7L330.8 434.9L333.1 439.2L333 442.7L335.8 446.9L336.7 449.5L335.9 450.4L337.7 454L336.9 454.3L335.6 452.3V454.7L337.2 454.6L337.5 456.9L339 459.5L339.6 462.5L338.8 462.9L340.1 465.8L341.3 466.3L341.5 469.1L340.9 472.6L339.2 472.2L339.7 470.8L338.9 465.9L338.1 464.6L337.8 471.1L339.2 471.9L337.5 472.8L338.3 476.6L336.9 475.5L334.8 476.3L334.5 478.3L333 478.2L332.8 480.7L329.6 482L328.4 483.5L325.3 484.1L322.8 482.9L321.1 483.2L320.1 481.6L317.1 481.2L315.3 481.7L313.1 485.5L315.1 486.9L317.4 486.2L318.2 491.9L321.1 495.7L319.6 501.3L315.9 502.6L315.3 504.6L315.6 507.5L312.6 508.3L312 509.3L304 507.4L304.1 505.7L301.4 503.1L301.5 501.2L299.8 499.6L299.1 496.8L297.3 496L296 492.7L292.1 491.1L288 490.6L286.4 489.4L282 489.1L279.9 490.7L271.7 489.8L268.4 491.4L265.1 491.1L260.7 494.4L261.9 491.7L261.2 483.6L259.1 479L258.9 476.9L257.2 473.2L253.3 470.7L254.3 467.9L253.4 467L253.7 464.4L254.4 462.8L256.8 461.5L256.7 460L260.3 459.4L261.1 457.6L262.8 457.3L263.2 452.8L264.6 450L267.9 450.9L271.8 449.3L272.3 447.4L274.6 447.2L277.6 449.6L280.2 448.9L281.4 447.3L282.3 447.8L285 443.1L286.8 443.8L291.1 441.5L293.6 441.8L293.4 440.9L297.7 435.1L296.6 432.6L298.7 431.7L300.3 433.7L302.8 434.3L304.7 433.8L305.6 432.2L309.5 434.3L312.8 431.8H315.7L315.8 428.3L318.9 427.9L319.5 427.1L321.8 427.5L324.2 426.9L328 428.5Z" fill="#3D3832"/>
<path d="M172.5 228.8L173.4 229L174.9 234.7L176.3 237.8L180.6 244L181.2 243.6L183.6 247.2L188.4 252.3L191.6 252.9L195.9 255.5L201 260.4L204.2 261.6L205.4 264.4L207.7 267.8L208.4 268L205.5 268.5L204.9 267.4L200.3 266.6L197.5 269.3L197.4 270.1L194.8 269.4L192.3 270.2L186.2 268.7L187.7 266.5L183.4 262.9L181.8 263.2L180.9 261.7H179L177.8 262.8L175.4 263.1L175.9 264.4L173.5 265.2L171.3 264.3L169.9 266.4L167 266.5L164.1 265.5L163.4 261.8L162.1 261.9L160.7 260.1L159.8 256.1L156.4 257.1L155.9 258.5L151.6 256.2L152.1 253.6L148.6 253.3L148 251.6L145.4 250.4L144.9 246.9L143.6 247L141.3 244.2L141.9 239.6L142.7 237.1L144 236L145.3 236.5L147.3 237.2L149.7 235.4L153.7 237.6L157.1 237.2L160.4 236.1L162.2 238.9L165.7 237.7L166.7 238.3L169.2 237.1V235.5L170.9 233.1L172.9 232.3L171.8 229.8L172.5 228.8Z" fill="#3D3832"/>
<path d="M272.8 520.9L275 521.5L274.5 523.1L276.2 529.3L274.1 531.3L276.7 531.9L279.5 534.3L278.6 535.8L275.8 536.8L275.3 538.2L276.2 540.6L278.5 543.1L280.2 542.7L283.5 545.7L284.9 548.5L287.4 547.9L288.3 549L290.3 548.6L290.9 549.5L291.9 547.7L293.9 547.3L296.6 545.1L297.9 545.7L301.4 544.1L303 542.7L303.8 544L305.5 543.1L308 544L311 543.1L312 542.1L313.1 542.7L312.9 545.8L314.3 549.6L311.6 551.5L313.4 554.9L311.2 559L310.6 564.9L309.1 566.6L311.5 567.7V569.6L313 571.8L311.8 573.4L306.4 574.7L305.9 576.6L307.4 578.8L310.2 579.1L311.8 582.6L312.9 583.2L315.8 582.9L315.6 585.8L319.8 587.4L320.8 589.6L317.1 590.5L315.4 592.4L314.3 596.7L311.4 596.4L307.9 596.7L304.4 598.3L303.1 600.1L302.2 603.3L299.3 604.3L297.6 603.9L296.4 604.9L295.7 607.8L294.4 607.6L293.6 609.7L292.9 608.6L290.2 607.8L287 609L283.9 609.5L281.3 613.7L280.2 618.2L279.1 620.1L274.6 619L270.6 620.3L268.6 622.4L265.2 623.3L259.1 626.3L258.9 624L255.9 616.6L258.9 614.7L258.5 608.6L256 605L254.3 605.2L251.7 603.2L253.4 600.2L253.6 598.3L255.5 593.9L256.7 593.5L256.5 590.6L257.7 588L257.3 588.5L255.1 586.4L254.4 584.6L252.3 584.4L254.2 582.5L251.3 580.2L249.6 580.8L248.8 577.6L247.8 579.3L246 577.5L246.2 575.8L244.7 574.9L245.4 570.6L250.4 568.7L252.2 564.1L246.9 557.1L242.7 556L242.6 549.8L241.5 543L244.6 541.7L248.2 541.5L251.7 545.5L252.9 543.5L257.7 540.5L257.9 537.3L259.4 533.6L258.8 532L259.9 530.5L258.9 526.2L259.3 524.5L258.5 518.9L261.7 518.7L268.2 519.8H269.8L272.3 518.2L272.8 520.9Z" fill="#3D3832"/>
<path d="M174.7 202.7L173 205.5L171.4 206.8L171.5 211.9L169.3 212.9L168.3 212.3L166.1 215.4L165.8 218L166.6 222L170.5 224.4V225.8L172.5 228.8L171.8 229.8L172.9 232.3L170.9 233.1L169.2 235.5V237.1L166.7 238.3L165.7 237.7L162.2 238.9L160.4 236.1L157.1 237.2L153.7 237.6L149.7 235.4L147.3 237.2L145.3 236.5L145.8 234.6L142.7 232.3V231L138.7 231.3L137.2 229.4L133.5 229.8L133.3 228.1L132 227.5L126.6 227.6L123 226L122.6 224.8L120.9 225L118.6 222.5L116.2 221.8L114.5 218.2L112.3 216.9L110 217.7L107.6 214.2L103.2 212.4L102 211.1L99.7 211.5L99.4 209.7L97.2 207.3L93.6 206.6L92 204.9L89.1 205.5L86.8 204.7L84.6 202.2L82.7 201.4L86.3 199.4L87.4 197.4L91.9 196.6L93.5 191.3L93.8 189.1L91.5 186.7L92 183.5L95.1 184.5L96.9 183.2L99.8 182.3L103.1 182.8L104 183.5L108.8 182.7L109 184L112.2 185.1L112.8 186.5L115.8 186.9L117.8 185.9L119.5 186.3L120.3 182.7L123.1 180L128.6 177.6L129.2 174.2L128.9 171.6L131.3 170L132.3 168.1L138.4 170.8L140.7 170.9L144.6 172.2L145.2 174.8L143.5 175L142.4 177.5L142.7 180.6L144.1 181.6L144.2 183.4L148.8 185.6L149.7 189.3L149.1 191L150.3 193.7L152.2 190.9L155.5 194.9L159.2 195.2L161.2 194.2L164.6 198.9L166 198.3L169 202.1L171.7 201.2L172 202.2L174.7 202.7Z" fill="#3D3832"/>
<path d="M345.8 516.7L344.3 517.8L344.7 520L347.6 525.1H348.9L347 529.2L345.8 527.1L346.6 525L344.1 523.9L345.3 523.3L344.2 518.8L342.8 519L339.4 523.3L338.1 523.8L336 527.5L337.1 530.4L338.3 528.7L338.7 532.9L341.2 534.4V536.9L343.5 538L341.7 539L341.5 540.3L339.8 540L338.5 537.5L335.7 535.4L334 537.6L336.8 538.6L336.9 541.2L338.8 542.6L337 543.4L336.6 546L337.5 547.2L336.7 549.5L337.8 550L336.6 551.8L336.9 554.5L339 558.3L340.8 559.6L339.5 561.3L340.6 563.3L339.2 564.4L336.9 563.1L337.5 558.6L336.8 555.3L335.6 553.2L335.5 555.3L337.1 558.1L335 561.9L333.9 561.7L332.5 564.6L334.1 566.2L336.1 563.4L336.5 566.5L336.1 567.3L338.2 569.6L335.7 573L333.3 578.4L331.5 577.3L330 577.5L329 574.9L327.7 575.2L329 576.6L328.8 579.1L327.901 580.3L328.2 588.2L324 590.8L320.8 589.6L319.8 587.4L315.6 585.8L315.8 582.9L312.901 583.2L311.8 582.6L310.2 579.1L307.401 578.8L305.9 576.6L306.401 574.7L311.8 573.4L313 571.8L311.5 569.6V567.7L309.1 566.6L310.6 564.9L311.2 559L313.401 554.9L311.6 551.5L314.3 549.6L312.9 545.8L313.1 542.7L312 542.1L312.4 539.3L311.5 537L313.7 534L314.6 534.4L316.7 533L321 535.5L320.5 533.6L322.3 530.3L320.7 528.7L322.3 527.2L322.5 524.9L324.5 523.9L326.2 524.5L326.8 523.3L329.2 521.4L331.3 521.5L332.9 518.8L334 519.7L335 517.6L338.1 518.2L339.4 516.9L340.8 517.2L344.7 515.5L345.8 516.7Z" fill="#3D3832"/>
<path d="M343.2 548L340.8 548.7L338.8 547.2L340.6 546.4H342.4L343.2 548Z" fill="#3D3832"/>
<path d="M345.6 527.3L346.9 530.5L346.2 530.8L342 527.9L343.8 527.1L345.6 527.3Z" fill="#3D3832"/>
<path d="M338.3 476.6L338 478.1L339.8 480.9L339.1 481.4L337.2 477.7L337.4 479.3L339.4 482.5L339 483.7L342.4 486.6L342.1 489.1L339.6 488.5L341.2 487L338.7 485.3L337.7 487.5L338.6 488.4L337.8 490.3L339.8 491.8L341.3 491.6L339.6 496.1L340.8 497.9L340.5 495.5L341.3 495L342.3 496.8L341.2 498.6V501.9L344.7 508.1L349 513.3L348.1 514.9L345.8 516.7L344.7 515.5L340.8 517.2L339.4 516.9L338.1 518.2L335 517.6L334 519.7L332.9 518.8L331.3 521.5L329.2 521.4L326.8 523.3L326.2 524.5L324.5 523.9L322.5 524.9L322.3 527.2L320.7 528.7L322.3 530.3L320.5 533.6L321 535.5L316.7 533L314.6 534.4L313.7 534L311.5 537L312.401 539.3L312 542.1L311 543.1L308 544L305.5 543.1L303.8 544L303 542.7L301.401 544.1L297.901 545.7L296.6 545.1L293.901 547.3L291.901 547.7L290.901 549.5L290.3 548.6L288.3 549L287.401 547.9L284.901 548.5L283.5 545.7L280.2 542.7L278.5 543.1L276.2 540.6L275.3 538.2L275.8 536.8L278.6 535.8L279.5 534.3L276.7 531.9L274.1 531.3L276.2 529.3L274.5 523.1L275 521.5L272.8 520.9L272.3 518.2L269.8 519.8H268.2L261.7 518.7L258.5 518.9L255.7 515.2L254.9 511.2L255.901 510.3L254.9 508.1L260.7 494.4L265.1 491.1L268.401 491.4L271.7 489.8L279.901 490.7L282 489.1L286.401 489.4L288 490.6L292.1 491.1L296 492.7L297.3 496L299.1 496.8L299.8 499.6L301.5 501.2L301.401 503.1L304.1 505.7L304 507.4L312 509.3L312.6 508.3L315.6 507.5L315.3 504.6L315.9 502.6L319.6 501.3L321.1 495.7L318.2 491.9L317.4 486.2L315.1 486.9L313.1 485.5L315.3 481.7L317.1 481.2L320.1 481.6L321.1 483.2L322.8 482.9L325.3 484.1L328.4 483.5L329.6 482L332.8 480.7L333 478.2L334.5 478.3L334.8 476.3L336.9 475.5L338.3 476.6Z" fill="#3D3832"/>
<path d="M277.4 354.4L278.9 353.2L282.2 354.9L285.6 354.6L288.8 353.4L286.9 354.4L285.4 357.6L288.2 359.9L290.2 359.6L289.9 358L291.4 356L295.7 357.9L291.6 358.9L291.3 360.7L293.3 365.2L295.2 367.4L298.8 369.9L300.1 374.4L303.8 380.4L308.6 386.8L310.3 388L309.2 390.1L311.4 389.8L312.5 388.7L312.8 390.7L314.7 392.8L313.8 394.1L310.6 394.3L307.9 395.5L297 397.8L294.9 397.6L293 400.3L294.2 401.5L293.9 403.8L290.7 408.4L290.9 410.7L288.2 409.5L286.6 409.8L287.1 413.1L286.7 414L283.8 414.6L281.6 412.5L278.9 412.2L277.2 409.8L278.3 408.9L279.5 404.8L277.2 403.7L276.1 402L274.4 402.8L266.9 401.1L266.5 397.2L265.6 397.5L263.4 395L263.3 393.5L261.5 392.1L258.5 393L256.5 392L256.3 389.3L253.5 387.8L250 388.2L249.2 384.5L247.4 381.9H245.6L244.4 380.3L245 378.4L243.4 376L242 376.3L242.7 374.1L241.8 372.1L246.8 369.2L250.9 368.7L252.1 367L254.1 362.4L255.1 361.6L257.7 363.1L258.2 361.5L261.4 360.5L261.3 361.8L265.3 363.8L268.7 360.3L270.8 360.8L272.6 358L273.6 354L275.3 353.1L277.4 354.4Z" fill="#3D3832"/>
<path d="M304.6 365.5L305.3 367.3L302.6 365.2L304.6 365.5Z" fill="#3D3832"/>
<path d="M319 393.6L321.7 396.4L321 397.7L323 400.2L324.1 400.3L323.8 402L322.2 403.4L322.6 408.5L323.5 411.9L326.2 418.9L328.9 423.7L330.9 426.5L330.3 427.3L331.1 432.7L329.5 431.4L328 428.5L324.2 426.9L321.8 427.5L319.5 427.1L318.9 427.9L315.8 428.3L315.7 431.8H312.8L309.5 434.3L305.6 432.2L304.7 433.8L302.8 434.3L300.3 433.7L298.7 431.7L296.6 432.6L297.7 435.1L293.4 440.9L293.6 441.8L291.1 441.5L286.8 443.8L285 443.1L282.3 447.8L281.4 447.3L280.2 448.9L277.6 449.6L274.6 447.2L272.3 447.4L271.8 449.3L267.9 450.9L264.6 450L263.2 452.8L262.8 457.3L261.1 457.6L260.3 459.4L256.7 460L256.8 461.5L254.4 462.8L253.7 464.4L253.1 460.9L250.2 461.2L248.8 459.6L250 456.9L247.8 455.1L251.1 449.4V446.6L250.5 444.9L251.9 442.7L252 440.5L255.1 441L256.1 436L257.1 433.8L256.5 432.3L258.5 427.3L258.4 425.8L256 422.4L259.9 418.7L259.6 417.4L254.7 414.4L254.4 411.2L257.8 409.8L259.4 410.8L261.4 409.6L260.4 407.9L261.6 405L259.6 402.6L261.4 401.8L261.1 398.2L262 396.7L260.9 395.9L260.4 393.5L261.5 392.1L263.3 393.5L263.4 395L265.6 397.5L266.5 397.2L266.9 401.1L274.4 402.8L276.1 402L277.2 403.7L279.5 404.8L278.3 408.9L277.2 409.8L278.9 412.2L281.6 412.5L283.8 414.6L286.7 414L287.1 413.1L286.6 409.8L288.2 409.5L290.9 410.7L290.7 408.4L293.9 403.8L294.2 401.5L293 400.3L294.9 397.6L297 397.8L307.9 395.5L310.6 394.3L313.8 394.1L314.7 392.8L316.6 393.5L319 392V393.6Z" fill="#3D3832"/>
<path d="M181.8 263.2L183.401 262.9L187.7 266.5L186.2 268.7L192.3 270.2L194.8 269.4L197.401 270.1L197.5 269.3L200.3 266.6L204.901 267.4L205.5 268.5L208.401 268L205.6 272.3L205.2 274.4L206.2 277.9L207.901 281.5L212.3 288.6L215.6 293.2L220 298L222.901 300.4L231.401 306.9L237 310.5L237.2 314.4L239.8 318.2L243.5 321.9L250.3 327.4L246.4 332.4L247.4 334L244.7 336L243.6 335.1L238.5 335.8L237.5 336.7L234.6 337.1L235 338.7L237.4 339.9L237.9 342L234.6 342.6L233.5 345.3L231.2 347.1L232.7 348.9H230.3L230.2 346.7L227 344.6L225.6 342.4L226.5 338.5L223.7 336.9L222.3 341L220.9 340.7V342.4L219.3 343.6L216.3 341.5L214.9 337.3L215.9 335.2L212.1 334.3L210.4 329.8L210.3 321.3L208.8 320.3L208.9 318.6L210.2 318.5L210.3 315L208.7 316.3L205.1 315.1L203.2 312.3L203.901 311.1L202 309.6L198.5 304.7L200 303.5L198.8 303.1L198.7 300.7L197.3 300.4L197.2 302.1L195.3 302.7L188.3 297.2L177.401 284.7L174.1 282.2H172.1L171.8 279.7L168.6 275.8L168.901 274.2L166.901 273L165.4 271.1L167 266.5L169.901 266.4L171.3 264.3L173.5 265.2L175.901 264.4L175.401 263.1L177.8 262.8L179 261.7H180.901L181.8 263.2Z" fill="#3D3832"/>
<path d="M288.8 353.4L285.6 354.6L282.2 354.9L278.9 353.2L277.4 354.4L275.3 353.1L273.6 354L272.6 358L270.8 360.8L268.7 360.3L265.3 363.8L261.3 361.8L261.4 360.5L258.2 361.5L257.7 363.1L255.1 361.6L254.1 362.4L252.8 359.6L247.9 360.9L245.3 357.8L243.4 356.4L241 356.5L239.4 355.4L238.7 353.1L239 350.6L235.7 348.3L232.7 348.9L231.2 347.1L233.5 345.3L234.6 342.6L237.9 342L237.4 339.9L235 338.7L234.6 337.1L237.5 336.7L238.5 335.8L243.6 335.1L244.7 336L247.4 334L246.4 332.4L250.3 327.4L256 332L261.1 335.6L263.6 336.7L268.3 340.2L274.1 345.3L278.3 348.1L280.2 348.2L280.6 346.9L283.7 352.4L281.2 350.9L282.2 353.1L284.1 352.7L288.8 353.4Z" fill="#3D3832"/>
<path fill-rule="evenodd" clip-rule="evenodd" d="M158.3 673.6H162.401L162.8 674.9L162.3 680.1L166.8 682.1L167.6 683.3L170 683.6L173.2 682L175.3 684L176.5 682.4L177.401 684.3L175.1 685.5L175.8 690L171.6 692.2L162.2 696.1L159.2 697.9L156.2 700.7L152.1 709.8L149.2 712.9L144.9 714.4L141.5 719.3L136.4 721.1L129 722.7L123 720.9L122.6 719.4L127.3 718.4L126 716.3L126.6 715.2L130.2 713.8L131.6 711.1L128 712.6L125.9 710.9L126.8 705.4L127.2 693L127.8 689.2L128.4 676.3L130.7 678.1L132.4 674.7L133.7 676.2L136.5 675L148.8 682.6L150.401 681L150.6 677.6L152.1 676.4L151.8 675L150 673L154.2 673.2L156.901 672.9L158.3 673.6Z" fill="#3D3832"/>
<path d="M242.6 549.8L242.7 556L246.9 557.1L252.2 564.1L250.4 568.7L245.4 570.6L244.7 574.9L246.2 575.8L246 577.5L247.8 579.3L248.8 577.6L249.6 580.8L251.3 580.2L254.2 582.5L252.3 584.4L254.4 584.6L255.1 586.4L257.3 588.5L257.7 588L256.5 590.6L256.7 593.5L255.5 593.9L253.6 598.3L253.4 600.2L251.7 603.2L254.3 605.2L256 605L258.5 608.6L258.9 614.7L255.9 616.6L253.3 615.1L249.1 618.6L248.6 621.1L246 620.7L246.1 617.4L240.8 616.6L238.3 617.8L238.1 620.8L236.3 622.3L233.7 622.2L231.6 623.4L233 625.3L232.4 628.5L231.3 628.3L231 625.9L227.6 624.5L225.8 622.5L223.4 623.5L220.1 620.3L220.6 618.1L223.3 616.2L225.8 616.8L226 614.4L224.9 613.1L224.1 610.3L220.4 607.9L222 606.8L221 605.7L222.7 604.3L223.4 602.5L225.7 604.6L227.5 604.5L230.1 600.4L230.2 598.5L228.6 596.5L227.4 596.3L227.6 593.9L228.8 590.9L229.3 589.1L227.8 588.5L225 590.5L224.8 587.5L221.5 587.2L220.7 585.9L222.6 583.4L222.1 581.9L219.9 582.7L220.1 583.7L216.3 588.5L213.5 588.1L213.3 586.9L211 587.7L209.8 586.9L210 584.8L211.4 583.6L207.3 581.6L204.3 581.8L204.7 579.6L207.4 578.1L205.6 573.2L203.8 568.7L206.3 563.8L203.6 558.6L205.8 557.9L206.7 558.7L214 558.6L215.4 558L218 559L219.6 557.3L221.9 553.5L227.9 554.4L231.5 552.8L234 551L238.4 545.9L239 544.3L241.5 543L242.6 549.8Z" fill="#3D3832"/>
<path d="M141.1 609.4L145.3 609.8L145.4 612.4L148.7 616.5L150.6 617L150.2 619.2L153.1 619.3L152.5 621.4L154 626.1L159.2 628L160.8 627.4L162.3 628.4L163.6 631L163.7 633.1L161.3 634.5L159.9 638L156.7 639.2L157.4 640.8L152.4 642.5L150.7 640.4L147.4 643.7L147.1 644.1L150.5 647.1L151.5 646.9L153.3 649.8L161.7 657.6L161 660.3L156.9 662.6L156.1 665.5L152 668.2L152.5 669.3L155.7 670.9L154.2 673.2L150 673L151.8 675L152.1 676.4L150.6 677.6L150.4 681L148.8 682.6L136.5 675L133.7 676.2L132.4 674.7L130.7 678.1L128.4 676.3L129.5 667.2L131.5 661L134.2 660.8L137.1 657.7L139.7 656.1L141.2 657.1L139.8 653.1L136.8 649.9L134.8 649L131.8 649.6L130.4 649.1L127.9 645.3L125 643.1L123 643L120.9 644.7L119.1 647.2L117.7 645.9L116.6 641.9L114.6 639.7L111.4 635.3L109.9 636.2L109.5 633.4L112.2 634L114.8 631.7L115.1 630L117.5 627.8H121.7L125.7 628.8L130 628.7L131.4 627.4L134.5 622.7L140.8 618.9L139.3 616.3L139.2 614.5L137.8 611.7L138.7 609L140.1 607.6L141.8 607.5L141.1 609.4Z" fill="#3D3832"/>
<path d="M164.9 642.3L166 644.5L168.9 647.3L173.9 650.7L176.6 654.6L179.1 656.7L183.1 659.3L187.4 664.4L189.4 665.8L195.8 672.1L198.5 673.8L196.2 677.3L193.9 678L191.8 681.9L193 683.6L190.3 685.6L189.2 685.4L178.9 688.8L175.8 690L175.1 685.5L177.4 684.3L176.5 682.4L175.3 684L173.2 682L170 683.6L167.6 683.3L166.8 682.1L162.3 680.1L162.8 674.9L162.4 673.6H158.3L156.9 672.9L154.2 673.2L155.7 670.9L152.5 669.3L152 668.2L156.1 665.5L156.9 662.6L161 660.3L161.7 657.6L153.3 649.8L151.5 646.9L150.5 647.1L147.1 644.1L147.4 643.7L150.7 640.4L152.4 642.5L157.4 640.8L156.7 639.2L159.9 638L164.9 642.3Z" fill="#3D3832"/>
<path d="M189.4 569.7L191.5 570.1L193.1 569.3L196.2 570.6L198.4 573L202.2 571.8L205.6 573.2L207.4 578.1L204.7 579.6L204.3 581.8L201.7 583.8L201.2 586.3L199.6 589.2L201 591.9L200.8 593.6L202.1 594.3L202.6 596.7L204.5 597.5L205.4 599.1L204.4 601.2L203.7 605.2L201.1 606L201.8 607.1L203.7 606.9L205.7 608.4L209.6 610.3L207.9 615.9L206.3 617.3L208.9 618.9L210.6 622.5L213 622L214.6 623.7L216.7 622.2L218.9 623.4L219.8 628.5L219.1 629.8L216.6 632.6L214.5 630.7L213.9 632L210.7 633.9L209.3 632.9L207 634.6L203.8 633L205.7 632L203.3 630L201.7 630.2V628.8L199.3 626.3L197.7 625.5L188.9 626V628.6L181.3 627.9L179.8 627.8L176.1 623L173.6 622L164.7 613.8L165.5 613.7L164.1 610.8L160.9 609.3L160.1 607.9H162L168.2 606.2L170.5 604.6L173.8 604.2L175.4 607.6L177.6 610.4L177 612.3L180.8 613.3L181.3 609.6L187 614.3L191.8 614.5L193.1 615.7L193 613.3L190.5 609.7L190.9 606.7L191.7 606.5L193.7 606.8L193.1 603.3L191.5 600.8L189.1 602.3L188.2 600.8L185 598.7L184.7 596.6L181.9 596L179.8 594L179.7 592.2L177.7 592.1L178.4 588.5L177.8 587.3L179.4 584.2L178.1 583.4L178.6 580L177.5 578.4L175.3 578.2L175.1 575.7L178.5 573L181.9 574.8L184.6 570.4L184.7 568.6L187.5 568.2L189.4 569.7Z" fill="#3D3832"/>
<path d="M160.1 607.9L160.9 609.3L164.1 610.8L165.5 613.7L164.7 613.8L173.6 622L176.1 623L179.8 627.8L181.3 627.9L188.9 628.6V626L197.7 625.5L199.3 626.3L201.7 628.8V630.2L203.3 630L205.7 632L203.8 633L207 634.6L209.3 632.9L210.7 633.9L213.9 632L214.5 630.7L216.6 632.6L219.1 629.8L222.2 634.1L223.5 637.9L221.4 639L220.8 640.4L221 644.6L219.8 644.5L216.2 642.3L209.7 640.9L206.5 639L202.8 637.5L198.6 638.4L197.8 637.9L193.8 638.7L190.9 640.1L187.6 640.3L185.7 639.4L183.1 637.9L180.4 640.1L179 640.5L178.2 641L180.2 643.6L178.1 644.6L177.9 646.3H174.6L171.1 643.9L168.9 647.3L166 644.5L164.9 642.3L159.9 638L161.3 634.5L163.7 633.1L163.6 631L162.3 628.4L160.8 627.4L159.2 628L154 626.1L152.5 621.4L153.1 619.3L150.2 619.2L150.6 617L148.7 616.5L145.4 612.4L145.3 609.8L148.9 610.5L152.4 612.5L156.6 606.9L160.1 607.9Z" fill="#3D3832"/>
<path d="M211.4 583.6L210 584.8L209.8 586.9L211 587.7L213.3 586.9L213.5 588.1L216.3 588.5L220.1 583.7L219.9 582.7L222.1 581.9L222.6 583.4L220.7 585.9L221.5 587.2L224.8 587.5L225 590.5L227.8 588.5L229.3 589.1L228.8 590.9L227.6 593.9L227.4 596.3L228.6 596.5L230.2 598.5L230.1 600.4L227.5 604.5L225.7 604.6L223.4 602.5L222.7 604.3L221 605.7L222 606.8L220.4 607.9L224.1 610.3L224.9 613.1L226 614.4L225.8 616.8L223.3 616.2L220.6 618.1L220.1 620.3L223.4 623.5L225.8 622.5L227.6 624.5L231 625.9L231.3 628.3L232.4 628.5L233 625.3L231.6 623.4L233.7 622.2L236.3 622.3L238.1 620.8L238.3 617.8L240.8 616.6L246.1 617.4L246 620.7L248.6 621.1L249.1 618.6L253.3 615.1L255.9 616.6L258.9 624L259.1 626.3L256.4 629.4L254 629.9L252.9 631.2L248 631.5L244 635.4L242.2 634.3L240.4 634.5L236.9 636.6L235.8 638.2L234.7 636.7L236.9 634.2L238.5 633.8L238.916 631.994L237.4 633.7L237.6 631.9H238.939L239.1 631.2L236.8 630.8L237.4 632.4L235.7 633L233.8 630.9L231.5 631L230.5 630.7L229.3 633.1L230.4 634.2L226 635.6L225.4 637.3L223.5 637.9L222.2 634.1L219.1 629.8L219.8 628.5L218.9 623.4L216.7 622.2L214.6 623.7L213 622L210.6 622.5L208.9 618.9L206.3 617.3L207.9 615.9L209.6 610.3L205.7 608.4L203.7 606.9L201.8 607.1L201.1 606L203.7 605.2L204.4 601.2L205.4 599.1L204.5 597.5L202.6 596.7L202.1 594.3L200.8 593.6L201 591.9L199.6 589.2L201.2 586.3L201.7 583.8L204.3 581.8L207.3 581.6L211.4 583.6Z" fill="#3D3832"/>
<path d="M206.5 639L209.7 640.9L216.2 642.3L219.8 644.5L221 644.6L221.7 648.6L219.9 651L217 652.9L215 654.9L216.9 659.8L215 662.3L212.6 663.4L210.9 666L211.6 669.8L210.8 671.9L207.9 675.1L203.7 676.5L200.4 674L198.5 673.8L195.8 672.1L189.4 665.8L187.4 664.4L183.1 659.3L179.1 656.7L176.6 654.6L173.901 650.7L168.9 647.3L171.1 643.9L174.6 646.3H177.901L178.1 644.6L180.2 643.6L178.2 641L179 640.5L180.401 640.1L183.1 637.9L185.7 639.4L187.6 640.3L190.9 640.1L193.8 638.7L197.8 637.9L198.6 638.4L202.8 637.5L206.5 639Z" fill="#3D3832"/>
<path d="M192.9 88.7002L192.1 89.2002V93.2998L195.7 94.7998L197.8 94.2998L197.5 96.2002L199.6 96.4004V98.5L202.1 99.2002L203.4 97.5L206.4 97L208.9 94L208.3 92.7002L211.3 88.9004L216 88.5L217.4 90.2002L220 91.9004L221.5 90.0996L224.3 91L225.4 92.2002L224.4 94.2002L226.5 94.4004L227.5 97.2998L231 96.9004L231.3 100.9L233.3 102.6L232.9 103.7L230.5 104.6L230.8 107.4L228.7 110.2L227.7 109.5L225.1 109.9L223.6 109.3L221.8 111.2L214.5 109.8L213.1 110.2L209.9 109.1L208 107.5L204.2 107.2L200.5 110.4L199 109L199.4 111.3L198.3 112.6L198.9 115.8L197.1 119.1L195.2 118.8L191.8 119.8L190.1 119.4L188.1 118.3L184.1 118.6L185 116.3L184.2 115L181.2 114.4L179.9 112.4L180.5 111.7L179.6 107.2L181.1 106.6L180.7 104L179.1 102.5L179.7 100L181 100.3L182.2 97.0996L185.2 99.0996L186.2 96.7998L186 93.0996L186.7 91.4004L185.5 90.9004L187.8 88L191.8 87.7002L192.9 88.7002Z" fill="#3D3832"/>
<path d="M211.1 48.1L208.8 49.4L207.5 49.2L207.3 50.9L205.6 51.4L202.9 50.6L201.3 51.5L200.5 49.8L195.6 46.4L193.6 47.8L192.9 50L191.5 48.9L189.2 49.4L188.5 47.3L189.7 45.8V43.8L187.9 40.7L186.3 40.5L179.9 44.4L177.6 43.4L174.7 43.2L173.5 40.7L171.9 39.7L171 37.6L173.4 34.9L171.8 32.5L169.8 33.4L168.1 33.2L165.7 34.5L165 36L163.4 36.1L161.7 37.7H160.1L160.2 34.3L158.7 31.8L154.7 28.9L149.1 26.2L150.8 25.7L151 23.9L153.6 22.4L154.2 20.1L159.7 19.2L161.7 14L163.2 13.6L163.9 16.1L166.7 15.5L170.8 16.3L171.2 17.5L173.6 18.5L174.6 19.8L176.9 20.3L177.5 22.5L180.1 21.8L184.1 22.5L184.2 19.9L193.4 20L195.8 22.5L196.6 25.1L200.5 26.6L201.9 25.3L204.7 25.4L205.5 24.3L207.8 24.2L208.5 22.2L211.1 23.5L212.3 22.9L215.3 26.1L216 24.9L218.1 25.2L218.2 26.7L220.7 28.1L223.1 28.5L223.3 30.6L220.6 32.3L221.2 34.2L220 34.6L217.8 40.6L215 40.5L213.1 39.3L211.7 44.2L211.1 48.1Z" fill="#3D3832"/>
<path d="M64.6 70.6L63.7 73.4L65.8 76L67.5 80.9L69.4 84.8L66.8 86.6L67.5 87.5L65.7 90.7L65.5 92.2L62.8 93.3L62 97.3L59.6 97.1L56.9 97.8L59.3 100.8L58.6 102.3L61.3 103.2L61.5 110.4L59.8 111.2L61.1 115.2L59 115.6L55.8 113.9L54.1 115.4L55.1 121.1L54.6 123.2L51.2 123.8L48.9 122.8L46.4 123.7L42.5 115.9L39.6 115.3L37.9 110.9L36.3 110.2L36.6 107.3L34.4 106L32.3 106.4L31.8 105.4L33.9 103.8L35.9 103.6V99.7L37.5 96.7L34.8 97.6L36.8 93.7L40.5 89.7L39.9 86.3L40.3 82.9L38.6 82.6L35 83.8L34 82.9L33.8 77.2H32.3L32.5 82.3L28.8 85.9L25.4 86.2L24.1 82.3L24.7 79.3L23.9 76.2L22.5 75.5L22.1 73L17.6 70.7L16.5 69.5L18 68L14 64.6L13.8 63.4L11.5 62.8L7.9 58.8L6.4 59L6.2 57.5L4.7 57.4L4.3 55.2L1.6 54.1L2.4 52.5L1 51.5L0 49.3L0.700001 47.8L4.5 47.9L5.7 48.6L5 46.5L8.5 42L9.8 44.8L11.5 45.9L11.7 48.9L14.3 51.1L19.1 57.1L20.5 56.3L22.6 57.5L22.7 59.4L25.4 60.8L26.4 58.9L24.7 56.6L28 57.4L29.1 58.9L28.6 62.5L30.2 64.8L34 66L37.4 64.6L40.2 67.8L40.9 66.6L42.7 66.8L45.1 65.7L45.7 64.1L47.9 65.8L49 65.2L54.2 67.2L54.4 63.9L56.8 61.5L59.1 61.4L61.6 66.4L63.2 67.7L62.5 68.6L64.6 70.6Z" fill="#3D3832"/>
<path d="M179.1 102.5L180.7 104L181.1 106.6L179.6 107.2L180.5 111.7L179.9 112.4L181.2 114.4L184.2 115L185 116.3L184.1 118.6L182.2 119.2L182.4 120.3L179.8 120L179.9 122.7L179.1 123.6L180.9 125.8L179.8 126.8L180.5 129L182.5 129.8L182.9 133.4L184.2 133.2L182.9 135.1L181.3 134.3L179.1 135.8L176.1 135.9L175.1 136.6L174.2 139.9L173.1 140.1L171.8 138.4H170.1L168.3 134.4L168.9 133.6L167.2 131.4L166.9 127.2L165 126.5L163.2 128L164.2 125.6L163 124.5L164 122.1H160.3L157.6 120.8L154.8 117.4L151.4 118L150.3 116.2L151.6 113L150 110.7L150.6 109.4L152.6 108.3L153.6 104.2L155.6 104L157.3 105.5L158.7 109.8L159.9 110.7L163.1 111.1L165.9 109.9L165.7 108.5L168.1 106.8L170.9 107.5L170.8 105.6L172.7 103.6L173.8 100.8L174.5 99.6L177.1 100L177.8 102.4L179.1 102.5Z" fill="#3D3832"/>
<path d="M208 107.5L207.2 112.2L205.1 112.8L205.8 115.4L208.7 116.3L211.5 115.8L213.2 117.6H215.1L220.7 119.7L220.8 122.6L220 124.5L218.6 125.2L220 125.9L220.4 127.9L220.2 129.9L222.3 132.5L222 134L220.7 132.8L218.2 134L215.9 136.6L213.9 137L212.8 136.4L208.8 138.2L206.5 138.3L205 135.3L203.2 133.9L203.5 131.8L200.8 133.4L200.3 132.8L196.9 134.2L194.8 133L194.3 130.9L191.4 129.4L190.3 128.1L191.6 121.1L190.1 119.4L191.8 119.8L195.2 118.8L197.1 119.1L198.9 115.8L198.3 112.6L199.4 111.3L199 109L200.5 110.4L204.2 107.2L208 107.5Z" fill="#3D3832"/>
<path d="M230.8 126.2L233.5 125.4L234.1 127.6L235.4 127.3L236.6 129.6L234 129.7L234.5 132.5L231.7 132L228.6 127.7L229.6 125.1L230.8 126.2Z" fill="#3D3832"/>
<path d="M227 128.5L224.5 128.8L224.3 127.5L225.4 126.9L227 128.5Z" fill="#3D3832"/>
<path d="M66 39.6L68.2 40.5L69.3 43.1L67.4 45.8L70.6 49.5L75.7 48.5L77.3 49.7L78.1 52L77.4 53.5L79.9 55.4L81.1 58L84.6 62L85.5 62.2L86.5 69.2L87.9 70.8L85.9 73.2L83.4 73.1L83.3 75.8L86.3 79.1L87 80.6L86.3 82L84.6 82.3L84.9 84L82.9 84.6L80.9 83.7L80.6 81.9L79.2 82L77.1 78.6L74.1 77.8L75.4 75.1L73.5 73.1L72 69.5L69.6 68.5L65.9 68L64.6 70.6L62.5 68.6L63.2 67.7L61.6 66.4L59.1 61.4L56.8 61.5L54.4 63.9L54.2 67.2L49 65.2L47.9 65.8L45.7 64.1L45.1 65.7L42.7 66.8L40.9 66.6L40.2 67.8L37.4 64.6L34 66L30.2 64.8L28.6 62.5L29.1 58.9L28 57.4L24.7 56.6L26.4 58.9L25.4 60.8L22.7 59.4L22.6 57.5L20.5 56.3L19.1 57.1L14.3 51.1L11.7 48.9L11.5 45.9L9.8 44.8L8.5 42L10.1 41.1L12.4 37.8L11.4 35.4L13.9 34.3L14.7 31.7L17.4 30.6L20.2 34.2L22.1 32.8L24.4 34.9L25.9 34.2L30.7 38L32.5 38.1L34.9 39.8L35 41.5L37.5 45.2L40.2 45.3L42.3 47.2L44.7 46.8V44L46.7 43.3L49.6 41.4L48.4 39.7L49.7 37.2L51.7 37.1L54.4 35.2L54.5 32.6L56.4 28.7L60.7 30.5L61.9 31.8L61.5 34.4L64.2 38.4L66 39.6Z" fill="#3D3832"/>
<path d="M211.1 48.1L212.1 50.2L210.8 51.9L215.5 52.6L217.5 58L216.1 60L217.7 61.4L217 62.3L217.9 64.1L216.8 68.8L217.5 71.1L219.2 68.8L221.4 68.9L222.5 70.4L225.1 69.9L228 70.5L228.4 72.5L230.7 72.8L231.3 71.6L234.7 72.6L234.9 74.4L232.6 75.9L232 77.5L235.9 78.6L238.4 80.9L243.6 83.7L246.2 81.9L249 85.8L249.1 89L245.8 89.3L245.2 90.6L241.5 91.8L242.8 92.8L243.1 95.9L244.4 98.9L243.8 100.5L242.2 99.5L239.9 100.6L236.5 100.1L233.3 102.6L231.3 100.9L231 96.9L227.5 97.3L226.5 94.4L224.4 94.2L225.4 92.2L224.3 91L221.5 90.1L220 91.9L217.4 90.2L216 88.5L211.3 88.9L208.3 92.7L208.9 94L206.4 97L203.4 97.5L202.1 99.2L199.6 98.5V96.4L197.5 96.2L197.8 94.3L195.7 94.8L192.1 93.3V89.2L192.9 88.7L193.2 86.7L194.8 85L195.4 83L189.4 80L188.6 78.1L190.2 72.9L188.7 72.2L189.4 71L188.8 65.7L191.5 65.1L192.7 62.7L195 60.6L194.6 58.8L195.8 55.9L193.6 53.7L194.5 51.9L192.9 50L193.6 47.8L195.6 46.4L200.5 49.8L201.3 51.5L202.9 50.6L205.6 51.4L207.3 50.9L207.5 49.2L208.8 49.4L211.1 48.1Z" fill="#3D3832"/>
<path fill-rule="evenodd" clip-rule="evenodd" d="M185.6 134.2L185.7 136.4L186.7 137.9L189.8 137.5L190.4 139.7L192.3 141.1L192.9 144.1L194.7 144.7L194.6 147.7L197.1 148L197.5 149.2L196.1 150.9L197.3 151.7L200.3 149.3L204.401 152.9L206.7 153.5L209.2 152.3L211 154.2L211.6 154.9L207 157.2L203.3 157.9L201.1 159.3L195.2 165.9L191.7 170.2L190.6 169.5L188.8 170.6L187.2 172L185.2 169.4L186.5 167.7L187.5 164.6H182.2L180.4 162.8L174.2 159.5L171.7 158.8L167.4 154.5L164.8 152.4L163.2 152.2L162.199 150L164.1 149.7L169.1 152.8L171.1 151.2L169 147.7L172.5 149.3L172.2 146.3L174.1 145.5L175.7 147.3L177.4 147.1L177 144.4L174.3 142.7L173.1 140.1L174.2 139.9L175.1 136.6L176.1 135.9L179.1 135.8L181.3 134.3L182.9 135.1L184.2 133.2L185.6 134.2Z" fill="#3D3832"/>
<path d="M248.5 127.4L249.9 127V128.7L248.5 127.4ZM248.2 124.1L250.6 124.7L248.5 125.4L248.2 124.1ZM258.2 121.5L255.4 125.3L255.2 124.8L258.5 120.3L258.2 121.5ZM267.7 117.9L269 120L266.7 118.4L267.7 117.9ZM257.8 118.2L258 118.9L256.1 122.6L251 123.4L254.5 121.1L255 119.3L257.4 116.6L257.8 118.2ZM272.9 116.6L271 119.4L270.2 119L271.8 116.4L272.9 116.6ZM259.5 113L258.9 114.5L256.9 114.8L258.1 112.8L259.5 113ZM260.4 116.3L259.3 119.6L258.8 118.6L259.7 115.3L261.9 112.4L260.4 116.3ZM252.5 106.3L250.3 107.8L250.7 106.3H252.5ZM254 105.2L257.1 107.9L257.3 109.2L260.9 107.8L257.7 111.5L256.3 111.3L255.8 112.7L250 116.5L250.9 112.9L253 111.2L251.9 110.7L253.7 108.6L254 105.2ZM270.5 101.5L267.4 103.7L265.4 103.6L270.7 100.9L270.5 101.5ZM279.7 99L277.2 100.8L273.6 100.9L272.9 99.9L279.7 99ZM225.4 126.9L224.3 127.5L223.7 126L221 126.8L222.3 128L220.4 127.9L220 125.9L218.6 125.2L220 124.5L220.8 122.6L220.7 119.7L215.1 117.6H213.2L211.5 115.8L208.7 116.3L205.8 115.4L205.1 112.8L207.2 112.2L208 107.5L209.9 109.1L213.1 110.2L214.5 109.8L221.8 111.2L223.6 109.3L225.1 109.9L227.7 109.5L228.7 110.2L230.8 107.4L230.5 104.6L232.9 103.7L233.3 102.6L236.5 100.1L239.9 100.6L242.2 99.5L243.8 100.5L244.4 98.9L243.1 95.9L242.8 92.8L241.5 91.8L245.2 90.6L245.8 89.3L249.1 89L250.1 89.1L251.7 87L254 85.8L255.5 87.2L254.8 89L257.6 89.5L258.5 88.3L264.1 88.5L270.4 86.1L272.6 86.2L274.8 89.6L275.9 89.5L277.2 91.9H279.6L280.5 94.8L278.2 97.1L279 94.7L272.5 92.7L272.1 93.7L268.9 92.7L267.4 93.8L269.8 94.1L267.5 98.8L264 98.1L263.7 99.7H262.3L260.6 104L256.9 101.8L256.1 103.8L253.2 102.6V104.7L249.7 102.9L249 104.6L249.4 107.4L248.8 111L250.4 112L249.3 115.4L249.5 117.4L247.7 118.9L245.8 118.6L242.1 119.3L240.7 121.1L237.5 121.7L234.8 120.6L233.4 121.2L228.2 120.6L228.3 122.9L224.2 123.4L225.4 126.9Z" fill="#3D3832"/>
<path d="M84.9 84L85.6 85.5H90.1999L92.9999 86.9L96.2999 86.2L97.7999 86.6L98.9999 85.4L104.8 86.4L102.4 88.9L101.8 91.4L102.6 92.7L102.1 95.4L104.4 98.4L105.1 97.9L108.6 100L108.7 100.8L111.3 101.2L113.9 98.2L116.7 97.7L119.4 99.7L121.3 99.9L121.5 98.8L123.6 98.5L124.3 101.2L125.7 102.5L127.4 102.1L128.8 103.3L128.7 105.6L129.8 108.3L129.3 111.2L132.2 113.1L129.3 114.8L130 117.2L133.5 122L135.2 123.2L136.6 126.3L136.3 127.8L137.5 128.5L135.9 130.8L136.2 132.3L130.7 130.1L128.9 130.7L129 135.8L127.2 136.5L126.9 139.1L123.9 139.6L123.1 138.2L121.2 138.5L119 135.7L115.6 132.6L113.4 133.4L112.3 132.7L111.7 130.1L109.9 128.5L108.6 128.7L104.2 125.5L104.6 124.9L101.9 122.2L100.9 123.6L100.1 122L97.6 120.7L94.7999 121.1L93.6 119.7L90.9999 121.1L89.9999 123.4L87.1999 122.9L85.9 123.8L83.6999 123.2L81.4999 125.4L79.4999 125.2L77.8999 128.2L78.7 131L75.8999 131.7L75.9999 135L73.4999 135.3L72.7 133.4L69.3999 131.2L65.1 130.7L62.9999 127.1L61.8999 128.5L59.1 129.2L51.7 126.3L51.2 123.8L54.6 123.2L55.1 121.1L54.1 115.4L55.7999 113.9L58.9999 115.6L61.1 115.2L59.7999 111.2L61.4999 110.4L61.2999 103.2L58.6 102.3L59.2999 100.8L56.8999 97.8L59.6 97.1L61.9999 97.3L62.7999 93.3L65.4999 92.2L65.7 90.7L67.4999 87.5L66.7999 86.6L69.3999 84.8L67.4999 80.9L65.7999 76L63.7 73.4L64.6 70.6L65.8999 68L69.6 68.5L71.9999 69.5L73.4999 73.1L75.3999 75.1L74.1 77.8L77.1 78.6L79.2 82L80.6 81.9L80.8999 83.7L82.9 84.6L84.9 84Z" fill="#3D3832"/>
<path d="M190.1 119.4L191.6 121.1L190.3 128.1L191.4 129.4L194.3 130.9L194.8 133L196.9 134.2L200.3 132.8L200.8 133.4L203.5 131.8L203.2 133.9L205 135.3L206.5 138.3L208.8 138.2L212.8 136.4L213.9 137L213.6 138.6L211.5 140.4L212.6 146.2L211.7 149.6L212.2 153.1L211 154.2L209.2 152.3L206.7 153.5L204.4 152.9L200.3 149.3L197.3 151.7L196.1 150.9L197.5 149.2L197.1 148L194.6 147.7L194.7 144.7L192.9 144.1L192.3 141.1L190.4 139.7L189.8 137.5L186.7 137.9L185.7 136.4L185.6 134.2L184.2 133.2L182.9 133.4L182.5 129.8L180.5 129L179.8 126.8L180.9 125.8L179.1 123.6L179.9 122.7L179.8 120L182.4 120.3L182.2 119.2L184.1 118.6L188.1 118.3L190.1 119.4Z" fill="#3D3832"/>
<path d="M173.4 34.9004L171 37.5996L171.9 39.7002L173.5 40.7002L174.7 43.2002L177.6 43.4004L179.9 44.4004L186.3 40.5L187.9 40.7002L189.7 43.7998V45.7998L188.5 47.2998L189.2 49.4004L191.5 48.9004L192.9 50L194.5 51.9004L193.6 53.7002L195.8 55.9004L194.6 58.7998L195 60.5996L192.7 62.7002L191.5 65.0996L188.8 65.7002L189.4 71L188.7 72.2002L190.2 72.9004L188.6 78.0996L189.4 80L195.4 83L194.8 85L193.2 86.7002L192.9 88.7002L191.8 87.7002L187.8 88L185.5 90.9004L186.7 91.4004L186 93.0996L186.2 96.7998L185.2 99.0996L182.2 97.0996L181 100.3L179.7 100L179.1 102.5L177.8 102.4L177.1 100L174.5 99.5996L173.8 100.8L172.1 98.0996L167.4 96L162.9 90.4004L162.2 90.2002L160 88L159.1 84.0996L161.4 80.7002L159.9 80.0996L160 77.5L161.6 76.7002L161.1 75.2998L162.7 73.7002L162.8 71.2002L160.4 69.5L159.7 67L158.5 65.5V63.4004L159.8 61.2998L158.8 61.2002L157 58.7002L157.1 56.2998L159.7 54.5996L159.4 53.5L160.8 52L161.1 49.2998L162.6 48.5996L163.1 46.2002L164.8 44.9004L164.5 42.2002L163.3 41.4004L161.7 37.7002L163.4 36.0996L165 36L165.7 34.5L168.1 33.2002L169.8 33.4004L171.8 32.5L173.4 34.9004Z" fill="#3D3832"/>
<path d="M162.2 150L163.2 152.2L164.8 152.4L167.4 154.5L171.7 158.8L174.2 159.5L180.4 162.8L182.2 164.6H187.5L186.5 167.7L185.2 169.4L182.1 171.5L182.4 173.4L180.8 176.3V178.8L179.1 181.5L178.2 181.2L176.2 184.5L174.8 192.7L175.1 195.8L173.7 197.2L175.3 201.4L174.7 202.7L172 202.2L171.7 201.2L169 202.1L166 198.3L164.6 198.9L161.2 194.2L159.2 195.2L155.5 194.9L152.2 190.9L150.3 193.7L149.1 191L149.7 189.3L148.8 185.6L144.2 183.4L144.1 181.6L142.7 180.6L142.4 177.5L143.5 175L145.2 174.8L144.6 172.2L140.7 170.9L138.4 170.8L132.3 168.1L133.4 165.9L135.9 163.2L132.6 160.9L132.9 160.1L130 160.9L125.4 158.1L123 158L120.1 156.4L117.9 155.9L118.3 149.9L121.2 148L122.6 148.2L120 144.5L118.5 145.1L117.1 147.4L113.8 147.6L113.6 148.5L110.8 149.8L108 148.5L108.4 146.9L106.8 145.8L107.3 143.9L111 142.5L113.5 140.8L114.4 138.4L117.3 138L119 135.7L121.2 138.5L123.1 138.2L123.9 139.6L126.9 139.1L127.2 136.5L129 135.8L131.4 134.9L134.4 137L134.5 137.9L137.4 140.4L140.2 139.5L143.6 141.2L144.4 142.5L147.2 143L149 145.5L148.7 146.5L152.9 148.7L155.6 149.5L156.6 148.8L160.4 150.1L162.2 150Z" fill="#3D3832"/>
<path fill-rule="evenodd" clip-rule="evenodd" d="M154 3.7002L156.2 5.5L156.8 4.5L159.8 7.90039L160.2 9.5L162.7 10.2002L163.6 11.5996L163.2 13.5996L161.7 14L159.7 19.2002L154.2 20.0996L153.6 22.4004L151 23.9004L150.8 25.7002L149.1 26.2002L154.7 28.9004L158.7 31.7998L160.2 34.2998L160.1 37.7002H161.7L163.3 41.4004L164.5 42.2002L164.8 44.9004L163.1 46.2002L162.6 48.5996L161.1 49.2998L160.8 52L159.4 53.5L159.7 54.5996L157.1 56.2998L157 58.7002L158.8 61.2002L159.8 61.2998L158.5 63.4004V65.5L159.7 67L160.4 69.5L162.8 71.2002L162.7 73.7002L161.1 75.2998L161.6 76.7002L160 77.5L159.9 80.0996L161.4 80.7002L159.1 84.0996L160 88L162.2 90.2002L161.1 92.2002L156.5 94L153.9 92.7002L151.8 93.5996L149 91.5L147.5 86L144.8 84.5996L143.8 84.9004L140.5 83.0996L139 81.7998L141.1 78.4004L137 74.0996L137.2 72.2998L135.8 72.5996L136.2 67L134.5 67.7002L133.5 66.5L130.9 65.5996L129.9 64.2998L129.1 60L124.7 60.5996L123.2 59.2002L123.1 56.4004L117.401 54.9004L116.6 56.7002L115 57.2002L114.5 55.5L116.2 54.2002L116.1 51.5996L112 48.2998L110 46.2998L111.2 45.2002L108.401 43L108.901 40.7002H110.8L110.5 38.7998L108.3 37.5L107.6 35.4004L106 35.7998L104.9 33.9004L105.5 34.7998L107.7 34.2998L108.8 32.5996L110.901 31.7002L113.3 29.5996L114.7 27.5L116.8 26.7998L117.901 28.5996L118.401 27.0996L120.7 28.5996L123.7 27.9004L125.5 24.4004L129.8 22.2998L128.7 20.4004L126.901 13.4004L130.401 13.0996L130.7 11.2998L132.3 10.5996L133.901 12.0996L134.3 9.59961L136.2 9.40039L140.5 6.2002L141.6 7.2998L144.5 5.2002L147.2 6.5L148.6 2.5H149.8L151.7 0L154 3.7002Z" fill="#3D3832"/>
<path d="M143.8 84.9004L144.8 84.5996L147.5 86L149 91.5L151.8 93.5996L153.9 92.7002L156.5 94L161.1 92.2002L162.2 90.2002L162.9 90.4004L167.4 96L172.1 98.0996L173.8 100.8L172.7 103.6L170.8 105.6L170.9 107.5L168.1 106.8L165.7 108.5L165.9 109.9L163.1 111.1L159.9 110.7L158.7 109.8L157.3 105.5L155.6 104L153.6 104.2L152.6 108.3L150.6 109.4L150 110.7L151.6 113L150.3 116.2L151.401 118L154.8 117.4L157.6 120.8L160.3 122.1H164L163 124.5L164.2 125.6L163.2 128L165 126.5L166.901 127.2L167.2 131.4L168.901 133.6L168.3 134.4L170.1 138.4H171.8L173.1 140.1L174.3 142.7L177 144.4L177.401 147.1L175.7 147.3L174.1 145.5L172.2 146.3L172.5 149.3L169 147.7L171.1 151.2L169.1 152.8L164.1 149.7L162.2 150L160.401 150.1L156.6 148.8L155.6 149.5L152.901 148.7L148.7 146.5L149 145.5L147.2 143L144.401 142.5L143.6 141.2L140.2 139.5L137.401 140.4L134.5 137.9L134.401 137L131.401 134.9L129 135.8L128.901 130.7L130.7 130.1L136.2 132.3L135.901 130.8L137.5 128.5L136.3 127.8L136.6 126.3L135.2 123.2L133.5 122L130 117.2L129.3 114.8L132.2 113.1L129.3 111.2L129.8 108.3L128.7 105.6L128.8 103.3L127.4 102.1L130.7 101.7L132.1 96.4004L130.1 91.9004L131.401 90.7002L131 88.4004L134.3 86L137.901 84L141 84.9004L140.5 83.0996L143.8 84.9004Z" fill="#3D3832"/>
<path d="M101.6 27.7998L100.9 31.0996L101.9 32.4004L104.9 33.9004L106 35.7998L107.6 35.4004L108.3 37.5L110.5 38.7998L110.8 40.7002H108.9L108.4 43L111.2 45.2002L110 46.2998L112 48.2998L116.1 51.5996L116.2 54.2002L114.5 55.5L115 57.2002L116.6 56.7002L117.4 54.9004L123.1 56.4004L123.2 59.2002L124.7 60.5996L129.1 60L129.9 64.2998L130.9 65.5996L133.5 66.5L134.5 67.7002L136.2 67L135.8 72.5996L137.2 72.2998L137 74.0996L141.1 78.4004L139 81.7998L140.5 83.0996L141 84.9004L137.9 84L134.3 86L131 88.4004L131.4 90.7002L130.1 91.9004L132.1 96.4004L130.7 101.7L127.4 102.1L125.7 102.5L124.3 101.2L123.6 98.5L121.5 98.7998L121.3 99.9004L119.4 99.7002L116.7 97.7002L113.9 98.2002L111.3 101.2L108.7 100.8L108.6 100L105.1 97.9004L104.4 98.4004L102.1 95.4004L102.6 92.7002L101.8 91.4004L102.4 88.9004L104.8 86.4004L99.0002 85.4004L97.8 86.5996L96.3 86.2002L93.0002 86.9004L90.2004 85.5H85.5999L84.8997 84L84.5999 82.2998L86.3 82L87.0002 80.5996L86.3 79.0996L83.3 75.7998L83.3997 73.0996L85.8997 73.2002L87.8997 70.7998L86.5002 69.2002L85.5002 62.2002L84.5999 62L81.0999 58L79.8997 55.4004L77.3997 53.5L78.0999 52L77.3 49.7002L75.7004 48.5L70.5999 49.5L67.3997 45.7998L69.3 43.0996L68.2004 40.5L66.0002 39.5996L68.2004 37.2998L67.7004 34.2998L71.3997 29.5996L72.3 30L77.5999 35L82.5999 41.0996L83.5002 41L86.8997 44L89.2004 43.2002L88.8997 40.5996L89.8 38.5L90.8 32.9004L93.5002 29.5996L98.8 27.7002L101.6 27.7998Z" fill="#3D3832"/>
</svg>
